
<!-- Generator: visioncortex VTracer 0.6.4 -->
<svg version="1.1" xmlns="http://www.w3.org/2000/svg" viewBox="0 0 320 320" preserveAspectRatio="xMidYMid meet">
<path d="M0 0 C0.901 -0.01 1.803 -0.019 2.731 -0.029 C3.703 -0.033 4.675 -0.038 5.677 -0.042 C7.18 -0.051 7.18 -0.051 8.715 -0.059 C10.837 -0.069 12.96 -0.075 15.082 -0.079 C18.321 -0.089 21.56 -0.12 24.8 -0.151 C26.863 -0.158 28.926 -0.163 30.989 -0.167 C31.955 -0.179 32.921 -0.192 33.916 -0.204 C40.41 -0.183 44.47 0.827 49.732 4.839 C52.212 8.039 53.216 11.491 54.329 15.321 C54.567 16.108 54.806 16.894 55.052 17.704 C55.551 19.361 56.045 21.019 56.533 22.679 C57.282 25.222 58.048 27.759 58.817 30.296 C59.301 31.908 59.784 33.521 60.266 35.134 C60.494 35.893 60.722 36.653 60.957 37.435 C61.838 40.441 62.532 43.011 62.532 46.161 C63.701 46.158 64.869 46.156 66.073 46.153 C93.819 46.088 121.566 46.038 149.312 46.008 C152.728 46.004 156.144 46 159.56 45.996 C160.24 45.996 160.92 45.995 161.62 45.994 C172.628 45.981 183.636 45.957 194.644 45.93 C205.94 45.902 217.237 45.885 228.534 45.879 C234.878 45.875 241.223 45.866 247.567 45.844 C253.538 45.824 259.509 45.817 265.481 45.822 C267.672 45.821 269.864 45.815 272.056 45.804 C275.049 45.789 278.041 45.792 281.034 45.8 C281.901 45.792 282.768 45.783 283.661 45.774 C289.034 45.814 292.773 46.61 297.532 49.161 C301.806 53.773 302.744 56.538 302.67 62.629 C302.443 66.79 301.67 70.798 300.851 74.877 C300.583 76.267 300.583 76.267 300.309 77.685 C299.72 80.728 299.118 83.769 298.516 86.81 C298.099 88.948 297.683 91.087 297.267 93.226 C296.171 98.852 295.065 104.477 293.957 110.101 C293.064 114.644 292.178 119.189 291.292 123.734 C290.224 129.218 289.152 134.701 288.079 140.185 C287.779 141.716 287.779 141.716 287.474 143.278 C286.528 148.102 285.576 152.924 284.608 157.744 C283.882 161.358 283.196 164.976 282.536 168.602 C282.211 170.309 281.886 172.016 281.56 173.722 C281.429 174.49 281.298 175.258 281.162 176.049 C280.117 181.382 278.413 184.318 274.532 188.161 C271.669 189.863 269.209 190.511 265.918 190.913 C264.994 191.029 264.07 191.145 263.119 191.265 C262.111 191.384 261.103 191.503 260.064 191.626 C258.996 191.758 257.928 191.891 256.827 192.027 C253.267 192.466 249.706 192.893 246.145 193.321 C243.627 193.629 241.109 193.938 238.591 194.247 C231.919 195.063 225.246 195.87 218.572 196.674 C214.621 197.15 210.671 197.629 206.72 198.108 C191.31 199.977 175.898 201.83 160.484 203.671 C154.54 204.381 148.596 205.093 142.653 205.806 C136.816 206.507 130.979 207.205 125.141 207.903 C122.696 208.196 120.251 208.489 117.805 208.782 C114.445 209.186 111.085 209.587 107.724 209.987 C106.729 210.107 105.734 210.227 104.708 210.35 C103.8 210.458 102.893 210.566 101.958 210.677 C100.777 210.818 100.777 210.818 99.572 210.962 C97.532 211.161 97.532 211.161 94.532 211.161 C94.254 213.079 94.254 213.079 93.969 215.036 C93.865 215.755 93.761 216.475 93.653 217.216 C93.364 219.243 93.364 219.243 94.532 221.161 C100.538 223.133 105.686 223.334 111.946 222.907 C112.85 222.855 113.754 222.802 114.686 222.748 C117.636 222.57 120.584 222.369 123.532 222.161 C124.529 222.091 125.526 222.021 126.553 221.948 C132.894 221.492 139.232 220.997 145.57 220.49 C151.288 220.033 157.008 219.589 162.727 219.146 C163.845 219.059 164.962 218.972 166.114 218.882 C179.579 217.841 193.048 216.919 206.532 216.161 C207.532 216.103 208.533 216.045 209.563 215.986 C221.941 215.292 234.327 215.023 246.722 214.931 C248.288 214.918 249.854 214.9 251.42 214.877 C253.626 214.847 255.83 214.837 258.036 214.833 C259.313 214.824 260.59 214.814 261.905 214.805 C266.924 215.298 271.073 216.467 274.469 220.411 C276.196 224.88 276.224 228.47 274.407 232.911 C271.668 236.198 268.719 237.934 264.387 238.384 C261.784 238.422 259.197 238.366 256.594 238.286 C254.484 238.259 252.373 238.235 250.262 238.216 C249.15 238.204 248.038 238.192 246.893 238.18 C206.938 237.959 166.476 241.493 126.727 245.297 C119.969 245.916 113.268 246.281 106.485 246.31 C105.787 246.314 105.09 246.319 104.371 246.324 C94.184 246.279 85.288 243.948 77.532 237.161 C71.794 231.043 70.098 224.113 70.274 215.845 C70.858 209.768 72.543 204.071 75.344 198.661 C78.653 188.909 72.093 175.678 69.144 166.197 C67.538 161.031 65.955 155.86 64.368 150.688 C64.043 149.63 63.718 148.572 63.382 147.482 C60.299 137.438 57.308 127.367 54.344 117.286 C53.295 113.718 52.246 110.151 51.196 106.583 C50.92 105.645 50.644 104.708 50.36 103.742 C47.975 95.644 45.568 87.554 43.156 79.465 C42.495 77.247 41.834 75.029 41.174 72.81 C40.956 72.079 40.738 71.347 40.513 70.593 C40.073 69.115 39.633 67.637 39.193 66.158 C38.099 62.487 37.005 58.817 35.908 55.147 C34.874 51.684 33.841 48.22 32.811 44.756 C32.242 42.844 31.669 40.933 31.097 39.022 C30.758 37.881 30.419 36.74 30.07 35.565 C29.772 34.565 29.473 33.565 29.166 32.535 C28.532 30.161 28.532 30.161 28.532 28.161 C27.503 28.182 26.474 28.203 25.414 28.225 C21.579 28.297 17.744 28.343 13.908 28.381 C12.251 28.401 10.595 28.428 8.938 28.463 C6.55 28.512 4.163 28.534 1.774 28.552 C0.672 28.583 0.672 28.583 -0.452 28.614 C-5.619 28.617 -8.503 27.433 -12.468 24.161 C-15.515 19.692 -16.428 15.447 -15.468 10.161 C-11.889 3.387 -7.702 0.066 0 0 Z M71.532 74.161 C72.786 79.805 74.055 85.227 75.661 90.751 C75.855 91.422 76.05 92.092 76.25 92.783 C76.657 94.181 77.064 95.578 77.473 96.975 C78.1 99.117 78.722 101.261 79.343 103.405 C81.061 109.926 81.061 109.926 83.532 116.161 C100.692 116.161 117.852 116.161 135.532 116.161 C135.532 102.301 135.532 88.441 135.532 74.161 C114.412 74.161 93.292 74.161 71.532 74.161 Z M149.532 74.161 C149.532 88.021 149.532 101.881 149.532 116.161 C156.919 116.184 164.307 116.204 171.694 116.216 C174.209 116.221 176.724 116.228 179.24 116.237 C182.846 116.249 186.453 116.254 190.059 116.259 C191.192 116.264 192.324 116.269 193.49 116.274 C194.531 116.275 195.572 116.275 196.645 116.275 C197.567 116.277 198.488 116.279 199.438 116.281 C201.52 116.395 201.52 116.395 202.532 115.161 C202.621 112.132 202.647 109.124 202.63 106.095 C202.629 105.29 202.628 104.485 202.627 103.655 C202.621 100.636 202.607 97.618 202.594 94.599 C202.574 87.854 202.553 81.11 202.532 74.161 C185.042 74.161 167.552 74.161 149.532 74.161 Z M215.532 74.161 C215.532 88.021 215.532 101.881 215.532 116.161 C231.372 116.161 247.212 116.161 263.532 116.161 C265.662 107.64 267.583 99.266 269.219 90.661 C269.444 89.509 269.669 88.356 269.901 87.169 C270.113 86.063 270.325 84.957 270.544 83.817 C270.734 82.825 270.924 81.834 271.121 80.812 C271.634 77.949 271.634 77.949 271.532 74.161 C253.052 74.161 234.572 74.161 215.532 74.161 Z M87.532 129.161 C89.285 135.587 91.035 142.001 92.907 148.392 C93.118 149.112 93.328 149.832 93.545 150.574 C93.985 152.075 94.425 153.577 94.866 155.078 C95.534 157.354 96.197 159.632 96.86 161.909 C97.292 163.383 97.724 164.856 98.157 166.329 C98.351 166.997 98.545 167.665 98.744 168.353 C100.13 173.046 101.774 177.594 103.532 182.161 C107.928 181.686 112.324 181.205 116.719 180.724 C117.965 180.589 119.211 180.454 120.495 180.315 C121.697 180.183 122.899 180.051 124.137 179.915 C125.242 179.795 126.347 179.674 127.486 179.55 C130.186 179.205 132.863 178.695 135.532 178.161 C135.532 161.991 135.532 145.821 135.532 129.161 C119.692 129.161 103.852 129.161 87.532 129.161 Z M149.532 129.161 C149.532 144.671 149.532 160.181 149.532 176.161 C161.33 175.409 161.33 175.409 173.04 174.224 C174.089 174.096 174.089 174.096 175.159 173.966 C176.602 173.79 178.045 173.612 179.488 173.432 C181.69 173.157 183.892 172.889 186.094 172.622 C191.615 171.945 197.074 171.253 202.532 170.161 C202.532 156.631 202.532 143.101 202.532 129.161 C185.042 129.161 167.552 129.161 149.532 129.161 Z M215.532 129.161 C215.532 142.031 215.532 154.901 215.532 168.161 C224.942 167.534 234.149 166.831 243.469 165.599 C244.546 165.46 245.624 165.321 246.733 165.179 C249.333 164.844 251.933 164.504 254.532 164.161 C255.329 160.579 256.118 156.995 256.907 153.411 C257.129 152.415 257.35 151.418 257.579 150.392 C257.908 148.893 257.908 148.893 258.243 147.364 C258.442 146.464 258.641 145.563 258.846 144.635 C259.86 139.499 260.671 134.325 261.532 129.161 C246.352 129.161 231.172 129.161 215.532 129.161 Z " fill="#0AAD0A" transform="translate(16.468017578125,5.8388671875)"/>
<path d="M0 0 C6.49 4.911 10.625 11.307 11.875 19.375 C12.416 27.445 10.65 34.364 5.918 40.953 C1.29 45.893 -5.219 49.656 -12.004 50.273 C-21.101 50.533 -27.954 49.607 -34.84 43.32 C-40.658 36.919 -43.45 29.989 -43.27 21.305 C-42.343 13.38 -39.18 6.987 -33.262 1.66 C-23.121 -5.784 -10.863 -6.284 0 0 Z " fill="#0AAD0A" transform="translate(124,265)"/>
<path d="M0 0 C5.933 4.772 10.355 10.826 11.246 18.512 C11.422 27.736 10.316 34.407 4.008 41.375 C-3.385 48.279 -9.589 49.974 -19.617 49.719 C-26.899 48.875 -32.069 45.775 -37.062 40.5 C-42.744 33.318 -44.082 26.388 -43.125 17.312 C-41.647 10.379 -37.705 3.823 -31.875 -0.266 C-20.904 -6.545 -10.954 -5.915 0 0 Z " fill="#0AAD0A" transform="translate(275.125,265.6875)"/>
</svg>